<svg xmlns="http://www.w3.org/2000/svg" width="960" height="540" viewBox="0 0 960 540">
  <rect width="960" height="540" fill="#07090d"/>
  <rect x="0" y="0" width="960" height="48" fill="#11151c"/>
  <text x="24" y="30" fill="#eef2f8" font-family="system-ui" font-size="16" font-weight="600">DeepScan</text>
  <text x="120" y="82" fill="#ff7a18" font-family="system-ui" font-size="12" font-weight="600">Live Monitor</text>
  <text x="36" y="120" fill="#eef2f8" font-family="system-ui" font-size="20" font-weight="600">Live Monitor</text>
  <g transform="translate(40,140)">
    <circle cx="100" cy="90" r="70" fill="none" stroke="#222c39" stroke-width="12"/>
    <path d="M 30 90 A 70 70 0 1 1 170 90" fill="none" stroke="#28d8ff" stroke-width="12" stroke-linecap="round"/>
    <text x="100" y="88" text-anchor="middle" fill="#eef2f8" font-family="ui-monospace" font-size="28" font-weight="700">812</text>
    <text x="100" y="108" text-anchor="middle" fill="#93a0b4" font-family="system-ui" font-size="11">RPM</text>
  </g>
  <g transform="translate(280,140)">
    <circle cx="100" cy="90" r="70" fill="none" stroke="#222c39" stroke-width="12"/>
    <text x="100" y="88" text-anchor="middle" fill="#eef2f8" font-family="ui-monospace" font-size="28" font-weight="700">0</text>
    <text x="100" y="108" text-anchor="middle" fill="#93a0b4" font-family="system-ui" font-size="11">km/h</text>
  </g>
  <g transform="translate(520,140)">
    <circle cx="100" cy="90" r="70" fill="none" stroke="#222c39" stroke-width="12"/>
    <path d="M 30 90 A 70 70 0 0 1 120 40" fill="none" stroke="#3ad17a" stroke-width="12" stroke-linecap="round"/>
    <text x="100" y="88" text-anchor="middle" fill="#eef2f8" font-family="ui-monospace" font-size="28" font-weight="700">89</text>
    <text x="100" y="108" text-anchor="middle" fill="#93a0b4" font-family="system-ui" font-size="11">°C coolant</text>
  </g>
  <rect x="40" y="300" width="200" height="80" rx="8" fill="#161c25" stroke="#232c39"/>
  <text x="52" y="322" fill="#93a0b4" font-family="system-ui" font-size="11">Short Term Fuel Trim</text>
  <text x="52" y="348" fill="#28d8ff" font-family="ui-monospace" font-size="22">+3.1 %</text>
  <polyline points="52,368 80,360 108,365 136,358 164,362 192,355" fill="none" stroke="#28d8ff" stroke-width="2"/>
  <rect x="260" y="300" width="200" height="80" rx="8" fill="#161c25" stroke="#232c39"/>
  <text x="272" y="322" fill="#93a0b4" font-family="system-ui" font-size="11">Module voltage</text>
  <text x="272" y="348" fill="#3ad17a" font-family="ui-monospace" font-size="22">14.2 V</text>
  <rect x="40" y="400" width="880" height="48" rx="8" fill="#ffb02e22" stroke="#ffb02e"/>
  <text x="52" y="430" fill="#ffb02e" font-family="system-ui" font-size="12">watch · Fuel trim (bank 1): Combined trim +10.2%  mildly lean. Worth watching.</text>
</svg>
